<?xml version="1.0" encoding="utf-8"?>
<!-- Generator: Adobe Illustrator 23.0.0, SVG Export Plug-In . SVG Version: 6.00 Build 0)  -->
<svg version="1.1" id="Layer_1" xmlns="http://www.w3.org/2000/svg" xmlns:xlink="http://www.w3.org/1999/xlink" x="0px" y="0px"
	 viewBox="0 0 315 315" style="enable-background:new 0 0 315 315;" xml:space="preserve">
<style type="text/css">
	.st0{display:none;}
	.st1{display:inline;fill:none;stroke:#ED1C24;stroke-width:0.75;stroke-miterlimit:10;}
	.st2{display:inline;fill:none;stroke:#ED1C24;stroke-width:0.5;stroke-miterlimit:10;}
	.st3{display:inline;}
	.st4{font-family:'MyriadCAD';}
	.st5{font-size:12px;}
</style>
<g id="Ebene_1">
	<g>
		<polyline points="19.3,231.2 147.8,102.8 193.4,148.4 203,139.1 281.7,217.7 20.8,217.8 19.3,231.2 313.9,231.2 203,120.3 
			193.4,129.8 147.8,83.8 1.1,231.2 		"/>
	</g>
</g>
<g id="Präsi" class="st0">
	<circle class="st1" cx="131.6" cy="300.3" r="15.5"/>
	<circle class="st1" cx="25.2" cy="277.3" r="15.5"/>
	<circle class="st2" cx="26.2" cy="302.5" r="15.5"/>
	<circle class="st1" cx="194.7" cy="300.3" r="15.5"/>
	<polygon class="st1" points="72.3,309.8 72.3,327.7 90.3,327.7 	"/>
	<polygon class="st1" points="72.4,291.5 111.8,251.6 72.3,252.1 	"/>
	<polygon class="st1" points="94,287.7 81.3,300.3 94,313 	"/>
	<polygon class="st1" points="176.9,174.9 167.6,184.2 228.4,245 237.8,235.8 	"/>
	
		<rect x="-3.8" y="254.4" transform="matrix(0.7071 -0.7071 0.7071 0.7071 -151.7285 155.6485)" class="st1" width="231.6" height="13.1"/>
	
		<rect x="83.5" y="275.2" transform="matrix(0.7071 -0.7071 0.7071 0.7071 -145.7706 211.6754)" class="st1" width="198.2" height="13.1"/>
	<polygon class="st1" points="362.7,341.9 227.4,206.5 218,215.8 353.4,351.2 	"/>
	<polygon class="st1" points="375.2,314.5 251.9,314.5 251.9,327.6 375.2,327.6 	"/>
</g>
<g id="Goldene_Schnitt" class="st0">
	<line class="st1" x1="-46.6" y1="252.1" x2="390.9" y2="252.1"/>
	<line class="st1" x1="72.1" y1="96.1" x2="72.1" y2="384"/>
	<line class="st1" x1="228.7" y1="96.1" x2="228.7" y2="384"/>
	<line class="st1" x1="228.4" y1="154" x2="348.9" y2="154"/>
	<line class="st1" x1="72.3" y1="144" x2="228.4" y2="144"/>
	<text transform="matrix(1 0 0 1 123.3009 137.3345)" class="st3 st4 st5">ca. 61,8</text>
	<text transform="matrix(1 0 0 1 256.9674 150.0012)" class="st3 st4 st5">ca. 38,2</text>
</g>
<rect class="st0" width="315" height="315"/>
</svg>
