<?xml version="1.0" encoding="utf-8"?>
<!-- Generator: Adobe Illustrator 22.1.0, SVG Export Plug-In . SVG Version: 6.00 Build 0)  -->
<svg version="1.1" id="Layer_1" xmlns="http://www.w3.org/2000/svg" xmlns:xlink="http://www.w3.org/1999/xlink" x="0px" y="0px"
	 viewBox="0 0 350.3 163.3" style="enable-background:new 0 0 350.3 163.3;" xml:space="preserve">
<style type="text/css">
	.st0{display:none;}
	.st1{display:inline;fill:none;stroke:#ED1C24;stroke-width:0.75;stroke-miterlimit:10;}
	.st2{display:inline;fill:none;stroke:#ED1C24;stroke-width:0.5;stroke-miterlimit:10;}
	.st3{display:inline;}
	.st4{enable-background:new    ;}
</style>
<g id="Ebene_1">
	<g>
		<path d="M43.8,116.5c-1.6-1.1-3.2-2-4.8-2.8s-3.1-1.5-4.5-2.1s-2.6-1-3.6-1.3s-1.7-0.5-2.1-0.6l-1.3-0.3c-1.3-0.4-2.7-0.8-4.2-1.2
			c-1.5-0.4-3-1-4.3-1.7c-1.7-0.9-3-1.8-3.9-2.9c-1.3-1.4-1.9-3-1.9-5c0-3.2,1.6-5.7,4.7-7.7c1.1-0.6,2.3-1,3.8-1.4
			c1.4-0.4,2.9-0.5,4.3-0.5c3.3,0,6.5,0.7,9.5,2.2c2,1,4,2.5,5.9,4.4l9.2-9.3c-0.6-0.5-1.2-1.1-2-1.7C48,84,47.1,83.4,46,82.7
			c-2.1-1.2-4.9-2.4-8.4-3.7c-3.5-1.2-7.9-1.8-13.1-1.8c-2.8,0-5.7,0.4-8.6,1.2c-2.9,0.8-5.6,2.1-7.9,3.9c-2.4,1.8-4.3,4.2-5.8,7.1
			C0.8,92.4,0,96,0,100.2c0,6.4,3.3,11.8,9.8,16.2c2.8,1.9,5.6,3.3,8.5,4.4c2.8,1.1,5,1.8,6.5,2.3c0.3,0.1,0.5,0.2,0.6,0.2
			c0.2,0.1,0.5,0.2,0.8,0.3c0.3,0,0.6,0.1,1,0.3c1.1,0.4,2.4,0.8,3.9,1.2c1.4,0.4,2.8,1,4.1,1.7c1.6,0.7,2.9,1.7,3.9,2.8
			c1.3,1.4,1.9,3.1,1.9,4.9c0,3-1.2,5.3-3.7,7.1c-1.2,0.8-2.5,1.4-4,1.9s-3.3,0.7-5.1,0.7c-1,0-2.3-0.1-3.9-0.3s-3.3-0.7-5.1-1.4
			c-3-1.2-5.6-2.8-8-5l-9,9c3,2.4,6.9,4.6,11.5,6.5c4.7,1.9,10,2.9,16,2.9c3.7,0,7.1-0.5,10.1-1.6s5.6-2.6,7.7-4.6s3.8-4.4,4.9-7.2
			c1.2-2.8,1.7-6,1.7-9.6C54.3,126.5,50.8,121.1,43.8,116.5z"/>
		<path d="M148.8,104.6c-2.1-1.7-4.5-3-7.2-4.1s-5.9-1.6-9.4-1.6c-4,0-7.6,0.7-11,2.2c-3.3,1.5-6.2,3.5-8.7,6.1
			c-2.4,2.6-4.4,5.6-5.7,9.1s-2.1,7.2-2.1,11.1c0,3.9,0.7,7.6,2.1,11c1.4,3.5,3.3,6.5,5.7,9.1s5.3,4.6,8.7,6.1c3.3,1.5,7,2.2,11,2.2
			c4.4,0,8.2-0.8,11.5-2.5l-4.6-11.5c-1.7,0.7-3.7,1.1-5.8,1.1s-4.1-0.4-6-1.1c-1.9-0.8-3.6-1.9-5-3.4c-3-3-4.5-6.7-4.5-10.9
			c0-4.3,1.5-8,4.5-11c1.4-1.4,3.1-2.6,5-3.3c1.9-0.8,3.9-1.2,6-1.2c4.3,0,8,1.5,11,4.5s4.5,6.7,4.5,11v27h13v-54.1h-13V104.6z"/>
		<path d="M211.6,104.6c-2.1-1.7-4.5-3-7.2-4.1s-5.8-1.6-9.3-1.6c-4,0-7.6,0.7-11,2.2c-3.3,1.5-6.2,3.5-8.7,6.1
			c-2.4,2.6-4.4,5.6-5.7,9.1c-1.4,3.5-2.1,7.2-2.1,11.1c0,3.9,0.7,7.6,2.1,11c1.4,3.5,3.3,6.5,5.7,9.1s5.3,4.6,8.7,6.1
			c3.3,1.5,7,2.2,11,2.2c4.3,0,8.1-0.8,11.4-2.5l-4.6-11.5c-1.7,0.7-3.6,1.1-5.7,1.1s-4.1-0.4-6-1.1c-1.9-0.8-3.6-1.9-5-3.4
			c-3-3-4.5-6.7-4.5-10.9c0-4.3,1.5-8,4.5-11s6.7-4.5,11-4.5c4.2,0,7.9,1.5,10.9,4.5s4.5,6.6,4.5,11v27h13V78.7h-13L211.6,104.6
			L211.6,104.6z"/>
		<rect x="232.1" y="78.8" width="13" height="13"/>
		<rect x="232.1" y="100.4" width="13" height="54"/>
		<polygon points="253.1,154.3 350.3,154.6 239.4,43.8 229.8,53.2 184.2,7.3 73.7,118.2 73.7,78.8 60.8,78.8 60.8,154.4 73.7,154.4 
			73.7,136.5 91.7,154.4 109.9,154.4 82.9,127.4 184.2,26.3 229.8,71.8 239.4,62.5 318.1,141.1 253.3,141.2 		"/>
	</g>
</g>
<g id="Präsi" class="st0">
	<circle class="st1" cx="168" cy="141" r="15.5"/>
	<circle class="st1" cx="61.6" cy="118" r="15.5"/>
	<circle class="st2" cx="62.6" cy="143.2" r="15.5"/>
	<circle class="st1" cx="231.1" cy="141" r="15.5"/>
	<polygon class="st1" points="108.7,150.5 108.7,168.4 126.7,168.4 	"/>
	<polygon class="st1" points="108.8,132.2 148.2,92.3 108.7,92.8 	"/>
	<polygon class="st1" points="130.4,128.4 117.7,141 130.4,153.7 	"/>
	<polygon class="st1" points="213.3,15.6 204,24.9 264.8,85.7 274.2,76.5 	"/>
	
		<rect x="32.6" y="95.1" transform="matrix(0.7071 -0.7071 0.7071 0.7071 -28.4246 134.6992)" class="st1" width="231.6" height="13.1"/>
	
		<rect x="119.9" y="115.9" transform="matrix(0.7071 -0.7071 0.7071 0.7071 -22.4441 190.7344)" class="st1" width="198.2" height="13.1"/>
	<polygon class="st1" points="399.1,182.6 263.8,47.2 254.4,56.5 389.8,191.9 	"/>
	<polygon class="st1" points="411.6,155.2 288.3,155.2 288.3,168.3 411.6,168.3 	"/>
</g>
<g id="Goldene_Schnitt" class="st0">
	<g id="_x37_tswju.tif" class="st3">
	</g>
	<line class="st1" x1="-10.2" y1="92.8" x2="427.3" y2="92.8"/>
	<line class="st1" x1="-14.6" y1="168.4" x2="427.3" y2="168.4"/>
	<line class="st1" x1="108.5" y1="-63.2" x2="108.5" y2="224.7"/>
	<line class="st1" x1="265.1" y1="-63.2" x2="265.1" y2="224.7"/>
	<line class="st1" x1="382.5" y1="-63.2" x2="382.5" y2="224.7"/>
	<line class="st1" x1="264.8" y1="-5.3" x2="385.3" y2="-5.3"/>
	<line class="st1" x1="108.7" y1="-15.3" x2="264.8" y2="-15.3"/>
	<text transform="matrix(1 0 0 1 159.6665 -22)" class="st3" style="font-family:'MyriadHebrew-Regular'; font-size:12px;">ca. 61,8</text>
	<text transform="matrix(1 0 0 1 293.333 -9.3333)" class="st3" style="font-family:'MyriadHebrew-Regular'; font-size:12px;">ca. 38,2</text>
</g>
</svg>
