<?xml version="1.0" encoding="utf-8"?>
<!-- Generator: Adobe Illustrator 22.1.0, SVG Export Plug-In . SVG Version: 6.00 Build 0)  -->
<svg version="1.1" id="Layer_1" xmlns="http://www.w3.org/2000/svg" xmlns:xlink="http://www.w3.org/1999/xlink" x="0px" y="0px"
	 viewBox="0 0 350.3 163.3" style="enable-background:new 0 0 350.3 163.3;" xml:space="preserve">
<style type="text/css">
	.st0{fill:#25453D;}
	.st1{enable-background:new    ;}
</style>
<g>
	<g>
		<rect x="13.9" y="109.1" class="st0" width="322.5" height="1"/>
	</g>
	<g>
		<path class="st0" d="M30.3,109.6c4.7-7.8,31.1-51.4,37.9-59.3s14-12.3,24.2,1.8S113.3,93,118.8,93s37.9-33.2,45.1-39.2
			c7.2-6,12.8-4.7,21.7,3s40.9,36.6,49.4,36.6s17.8-26.8,24.3-34.9c6.7-8.4,12.8-5.5,20.4,3.8s28.5,47.4,32.8,47.4
			S30.3,109.6,30.3,109.6z"/>
	</g>
	<g class="st1">
		<path class="st0" d="M15.9,124.1h1.7c1,0,1.6,0,2,0.1c0.5,0.1,0.9,0.4,1.2,0.7c0.3,0.4,0.5,0.8,0.5,1.4c0,0.6-0.1,1-0.5,1.4
			c-0.3,0.4-0.7,0.6-1.2,0.7c-0.4,0.1-1.1,0.1-2.2,0.1h-0.6v3.9h-0.8V124.1z M16.7,125v2.9l1.4,0c0.6,0,1-0.1,1.3-0.2
			c0.3-0.1,0.5-0.3,0.6-0.5c0.2-0.2,0.2-0.5,0.2-0.8c0-0.3-0.1-0.5-0.2-0.8c-0.2-0.2-0.4-0.4-0.6-0.5s-0.7-0.2-1.2-0.2H16.7z"/>
		<path class="st0" d="M29,126.3v6.3h-0.8v-1.1c-0.3,0.4-0.7,0.7-1.1,0.9c-0.4,0.2-0.9,0.3-1.4,0.3c-0.9,0-1.6-0.3-2.3-1
			c-0.6-0.6-0.9-1.4-0.9-2.4c0-0.9,0.3-1.7,1-2.3c0.6-0.6,1.4-1,2.3-1c0.5,0,1,0.1,1.4,0.3c0.4,0.2,0.8,0.5,1.1,1v-1.2H29z
			 M25.8,127c-0.4,0-0.9,0.1-1.2,0.3s-0.7,0.5-0.9,0.9c-0.2,0.4-0.3,0.8-0.3,1.3c0,0.4,0.1,0.9,0.3,1.3c0.2,0.4,0.5,0.7,0.9,0.9
			c0.4,0.2,0.8,0.3,1.2,0.3c0.4,0,0.9-0.1,1.3-0.3c0.4-0.2,0.7-0.5,0.9-0.9c0.2-0.4,0.3-0.8,0.3-1.3c0-0.7-0.2-1.3-0.7-1.8
			C27.1,127.2,26.5,127,25.8,127z"/>
		<path class="st0" d="M30.5,126.3h0.8v0.9c0.2-0.4,0.5-0.6,0.8-0.8c0.3-0.2,0.6-0.3,0.9-0.3c0.2,0,0.5,0.1,0.7,0.2l-0.4,0.7
			c-0.2-0.1-0.3-0.1-0.4-0.1c-0.3,0-0.5,0.1-0.8,0.3c-0.3,0.2-0.4,0.6-0.6,1c-0.1,0.4-0.1,1.1-0.1,2.2v2.1h-0.8V126.3z"/>
		<path class="st0" d="M34.4,123.9h0.8v5l2.9-2.5h1.2l-3.5,3l3.7,3.3h-1.1l-3.2-2.8v2.8h-0.8V123.9z"/>
		<path class="st0" d="M41.2,126.2c0.2,0,0.4,0.1,0.5,0.2s0.2,0.3,0.2,0.5c0,0.2-0.1,0.4-0.2,0.5c-0.1,0.1-0.3,0.2-0.5,0.2
			s-0.4-0.1-0.5-0.2c-0.1-0.1-0.2-0.3-0.2-0.5c0-0.2,0.1-0.4,0.2-0.5S41,126.2,41.2,126.2z M41.2,131.3c0.2,0,0.4,0.1,0.5,0.2
			c0.1,0.1,0.2,0.3,0.2,0.5c0,0.2-0.1,0.4-0.2,0.5s-0.3,0.2-0.5,0.2s-0.4-0.1-0.5-0.2s-0.2-0.3-0.2-0.5c0-0.2,0.1-0.4,0.2-0.5
			C40.8,131.4,41,131.3,41.2,131.3z"/>
		<path class="st0" d="M48.2,132.8l-0.7-0.5l2.3-3.5c-0.3,0.1-0.6,0.2-0.9,0.2c-0.7,0-1.2-0.2-1.7-0.7c-0.5-0.5-0.7-1.1-0.7-1.8
			c0-0.5,0.1-0.9,0.3-1.3c0.2-0.4,0.5-0.7,1-0.9s0.9-0.4,1.3-0.4c0.5,0,0.9,0.1,1.3,0.3c0.4,0.2,0.7,0.5,0.9,1
			c0.2,0.4,0.3,0.8,0.3,1.3c0,0.4-0.1,0.7-0.2,1.1c-0.1,0.4-0.4,0.8-0.8,1.4L48.2,132.8z M49.1,128.3c0.5,0,0.9-0.2,1.3-0.5
			c0.3-0.3,0.5-0.8,0.5-1.3c0-0.5-0.2-0.9-0.5-1.3c-0.3-0.3-0.8-0.5-1.3-0.5c-0.5,0-0.9,0.2-1.3,0.5c-0.3,0.3-0.5,0.8-0.5,1.3
			c0,0.5,0.2,0.9,0.5,1.3C48.2,128.1,48.6,128.3,49.1,128.3z"/>
		<path class="st0" d="M54.3,131.3c0.2,0,0.4,0.1,0.5,0.2c0.1,0.1,0.2,0.3,0.2,0.5c0,0.2-0.1,0.4-0.2,0.5s-0.3,0.2-0.5,0.2
			s-0.4-0.1-0.5-0.2s-0.2-0.3-0.2-0.5c0-0.2,0.1-0.4,0.2-0.5C53.9,131.4,54.1,131.3,54.3,131.3z"/>
		<path class="st0" d="M61.6,124.1v0.8h-3l-0.4,2.3c0.4-0.1,0.7-0.2,1-0.2c0.8,0,1.4,0.3,1.9,0.8c0.5,0.5,0.8,1.2,0.8,2
			c0,0.6-0.1,1.1-0.4,1.5c-0.3,0.5-0.6,0.8-1,1.1c-0.4,0.2-0.9,0.4-1.5,0.4c-0.7,0-1.3-0.2-1.7-0.6c-0.5-0.4-0.8-1-0.8-1.6h0.9
			c0.1,0.3,0.2,0.6,0.3,0.8c0.2,0.2,0.4,0.4,0.6,0.5s0.5,0.2,0.8,0.2c0.6,0,1-0.2,1.4-0.6s0.6-1,0.6-1.6c0-0.6-0.2-1-0.5-1.4
			s-0.8-0.5-1.4-0.5c-0.5,0-1.1,0.2-1.8,0.5l0.8-4.2H61.6z"/>
		<path class="st0" d="M67.1,123.9l-3.5,9.9h-0.9l3.5-9.9H67.1z"/>
		<path class="st0" d="M69.7,124.1h1.7v8.5h-0.8V125h-1.3L69.7,124.1z"/>
		<path class="st0" d="M74.4,128.4c0-1.1,0.1-2,0.4-2.6c0.2-0.6,0.6-1.1,1-1.4c0.4-0.3,0.9-0.5,1.5-0.5c0.6,0,1,0.2,1.5,0.5
			s0.8,0.8,1.1,1.4s0.4,1.5,0.4,2.6c0,1.1-0.1,1.9-0.4,2.5c-0.3,0.6-0.6,1.1-1.1,1.4s-1,0.5-1.5,0.5c-0.5,0-1-0.2-1.5-0.5
			c-0.4-0.3-0.8-0.8-1-1.4C74.5,130.4,74.4,129.5,74.4,128.4z M75.2,128.4c0,1,0.1,1.7,0.3,2.2c0.2,0.5,0.4,0.9,0.8,1.1
			c0.3,0.3,0.7,0.4,1.1,0.4c0.4,0,0.7-0.1,1.1-0.4s0.6-0.6,0.7-1.1c0.2-0.6,0.3-1.3,0.3-2.2c0-0.9-0.1-1.6-0.3-2.1
			c-0.2-0.5-0.4-0.9-0.8-1.2c-0.3-0.3-0.7-0.4-1.1-0.4c-0.4,0-0.7,0.1-1.1,0.4c-0.3,0.3-0.6,0.6-0.8,1.1
			C75.3,126.7,75.2,127.4,75.2,128.4z"/>
	</g>
	<g class="st1">
		<path class="st0" d="M120.9,124.1l4,8.5h-0.9l-1.3-2.8h-3.7l-1.3,2.8h-0.9l4-8.5H120.9z M120.8,125.9l-1.5,3.1h2.9L120.8,125.9z"
			/>
		<path class="st0" d="M125.9,123.9h0.8v8.7h-0.8V123.9z"/>
		<path class="st0" d="M128.3,123.9h0.8v8.7h-0.8V123.9z"/>
		<path class="st0" d="M133.8,132.6l1.2-8.5h0.1l3.5,7l3.4-7h0.1l1.2,8.5h-0.8l-0.8-6.1l-3,6.1h-0.2l-3-6.1l-0.8,6.1H133.8z"/>
		<path class="st0" d="M147.9,126.2c1,0,1.8,0.3,2.4,1c0.6,0.6,0.9,1.4,0.9,2.3c0,0.9-0.3,1.6-0.9,2.3s-1.4,1-2.4,1
			c-1,0-1.8-0.3-2.4-1c-0.6-0.7-0.9-1.4-0.9-2.3c0-0.9,0.3-1.6,0.9-2.3C146.1,126.5,146.9,126.2,147.9,126.2z M147.9,127
			c-0.7,0-1.2,0.2-1.7,0.7c-0.5,0.5-0.7,1.1-0.7,1.8c0,0.5,0.1,0.9,0.3,1.3c0.2,0.4,0.5,0.7,0.9,0.9c0.4,0.2,0.8,0.3,1.2,0.3
			c0.4,0,0.9-0.1,1.2-0.3c0.4-0.2,0.7-0.5,0.9-0.9s0.3-0.8,0.3-1.3c0-0.7-0.2-1.3-0.7-1.8C149.1,127.2,148.5,127,147.9,127z"/>
		<path class="st0" d="M152.5,126.3h0.8v2.9c0,0.7,0,1.2,0.1,1.5c0.1,0.4,0.3,0.7,0.7,0.9c0.3,0.2,0.7,0.3,1.2,0.3
			c0.5,0,0.8-0.1,1.1-0.3c0.3-0.2,0.5-0.5,0.7-0.9c0.1-0.2,0.1-0.8,0.1-1.5v-2.9h0.8v3.1c0,0.9-0.1,1.5-0.3,2s-0.5,0.8-0.9,1
			s-0.9,0.4-1.5,0.4s-1.1-0.1-1.5-0.4c-0.4-0.2-0.7-0.6-0.9-1s-0.3-1.1-0.3-2V126.3z"/>
		<path class="st0" d="M159.8,126.3h0.8v1.1c0.3-0.4,0.7-0.8,1.1-1c0.4-0.2,0.8-0.3,1.3-0.3c0.5,0,0.9,0.1,1.2,0.4s0.6,0.6,0.8,1
			s0.3,1,0.3,1.9v3.2h-0.8v-3c0-0.7,0-1.2-0.1-1.4c-0.1-0.4-0.3-0.7-0.5-0.9s-0.6-0.3-1-0.3c-0.5,0-0.9,0.2-1.3,0.5
			s-0.6,0.7-0.8,1.2c-0.1,0.3-0.1,0.9-0.1,1.7v2.3h-0.8V126.3z"/>
		<path class="st0" d="M167.7,124h0.8v2.3h1.3v0.7h-1.3v5.6h-0.8V127h-1.1v-0.7h1.1V124z"/>
		<path class="st0" d="M177.3,126.3v6.3h-0.8v-1.1c-0.3,0.4-0.7,0.7-1.1,0.9c-0.4,0.2-0.9,0.3-1.4,0.3c-0.9,0-1.6-0.3-2.3-1
			c-0.6-0.6-0.9-1.4-0.9-2.4c0-0.9,0.3-1.7,1-2.3c0.6-0.6,1.4-1,2.3-1c0.5,0,1,0.1,1.4,0.3c0.4,0.2,0.8,0.5,1.1,1v-1.2H177.3z
			 M174.1,127c-0.4,0-0.9,0.1-1.2,0.3s-0.7,0.5-0.9,0.9c-0.2,0.4-0.3,0.8-0.3,1.3c0,0.4,0.1,0.9,0.3,1.3c0.2,0.4,0.5,0.7,0.9,0.9
			c0.4,0.2,0.8,0.3,1.2,0.3c0.4,0,0.9-0.1,1.3-0.3c0.4-0.2,0.7-0.5,0.9-0.9c0.2-0.4,0.3-0.8,0.3-1.3c0-0.7-0.2-1.3-0.7-1.8
			C175.3,127.2,174.8,127,174.1,127z"/>
		<path class="st0" d="M179.4,123.8c0.2,0,0.3,0.1,0.5,0.2c0.1,0.1,0.2,0.3,0.2,0.5c0,0.2-0.1,0.3-0.2,0.5c-0.1,0.1-0.3,0.2-0.5,0.2
			c-0.2,0-0.3-0.1-0.5-0.2c-0.1-0.1-0.2-0.3-0.2-0.5c0-0.2,0.1-0.3,0.2-0.5C179.1,123.8,179.2,123.8,179.4,123.8z M179,126.3h0.8
			v6.3H179V126.3z"/>
		<path class="st0" d="M181.5,126.3h0.8v1.1c0.3-0.4,0.7-0.8,1.1-1c0.4-0.2,0.8-0.3,1.3-0.3c0.5,0,0.9,0.1,1.2,0.4
			c0.4,0.2,0.6,0.6,0.8,1c0.2,0.4,0.3,1,0.3,1.9v3.2h-0.8v-3c0-0.7,0-1.2-0.1-1.4c-0.1-0.4-0.3-0.7-0.5-0.9s-0.6-0.3-1-0.3
			c-0.5,0-0.9,0.2-1.3,0.5s-0.6,0.7-0.8,1.2c-0.1,0.3-0.1,0.9-0.1,1.7v2.3h-0.8V126.3z"/>
		<path class="st0" d="M189.6,126.2c0.2,0,0.4,0.1,0.5,0.2s0.2,0.3,0.2,0.5c0,0.2-0.1,0.4-0.2,0.5c-0.1,0.1-0.3,0.2-0.5,0.2
			s-0.4-0.1-0.5-0.2c-0.1-0.1-0.2-0.3-0.2-0.5c0-0.2,0.1-0.4,0.2-0.5S189.4,126.2,189.6,126.2z M189.6,131.3c0.2,0,0.4,0.1,0.5,0.2
			c0.1,0.1,0.2,0.3,0.2,0.5c0,0.2-0.1,0.4-0.2,0.5s-0.3,0.2-0.5,0.2s-0.4-0.1-0.5-0.2s-0.2-0.3-0.2-0.5c0-0.2,0.1-0.4,0.2-0.5
			C189.2,131.4,189.4,131.3,189.6,131.3z"/>
		<path class="st0" d="M196.6,132.8l-0.7-0.5l2.3-3.5c-0.3,0.1-0.6,0.2-0.9,0.2c-0.7,0-1.2-0.2-1.7-0.7c-0.5-0.5-0.7-1.1-0.7-1.8
			c0-0.5,0.1-0.9,0.3-1.3c0.2-0.4,0.5-0.7,1-0.9c0.4-0.2,0.9-0.4,1.3-0.4c0.5,0,0.9,0.1,1.3,0.3c0.4,0.2,0.7,0.5,0.9,1
			c0.2,0.4,0.3,0.8,0.3,1.3c0,0.4-0.1,0.7-0.2,1.1c-0.1,0.4-0.4,0.8-0.8,1.4L196.6,132.8z M197.5,128.3c0.5,0,0.9-0.2,1.3-0.5
			c0.3-0.3,0.5-0.8,0.5-1.3c0-0.5-0.2-0.9-0.5-1.3c-0.3-0.3-0.8-0.5-1.3-0.5c-0.5,0-0.9,0.2-1.3,0.5c-0.3,0.3-0.5,0.8-0.5,1.3
			c0,0.5,0.2,0.9,0.5,1.3C196.6,128.1,197,128.3,197.5,128.3z"/>
		<path class="st0" d="M205.7,123.9l-3.5,9.9h-0.9l3.5-9.9H205.7z"/>
		<path class="st0" d="M208.2,124.1h1.7v8.5h-0.8V125h-1.3L208.2,124.1z"/>
		<path class="st0" d="M213,128.4c0-1.1,0.1-2,0.4-2.6c0.2-0.6,0.6-1.1,1-1.4c0.4-0.3,0.9-0.5,1.5-0.5c0.5,0,1,0.2,1.5,0.5
			s0.8,0.8,1.1,1.4s0.4,1.5,0.4,2.6c0,1.1-0.1,1.9-0.4,2.5c-0.3,0.6-0.6,1.1-1.1,1.4s-1,0.5-1.5,0.5c-0.5,0-1-0.2-1.5-0.5
			c-0.4-0.3-0.8-0.8-1-1.4C213.1,130.4,213,129.5,213,128.4z M213.8,128.4c0,1,0.1,1.7,0.3,2.2c0.2,0.5,0.4,0.9,0.8,1.1
			s0.7,0.4,1.1,0.4c0.4,0,0.7-0.1,1.1-0.4s0.6-0.6,0.7-1.1c0.2-0.6,0.3-1.3,0.3-2.2c0-0.9-0.1-1.6-0.3-2.1s-0.4-0.9-0.8-1.2
			c-0.3-0.3-0.7-0.4-1.1-0.4c-0.4,0-0.7,0.1-1.1,0.4c-0.3,0.3-0.6,0.6-0.8,1.1C213.9,126.7,213.8,127.4,213.8,128.4z"/>
	</g>
	<g class="st1">
		<path class="st0" d="M260.7,124.1h1.7c1,0,1.6,0,2,0.1c0.5,0.1,0.9,0.4,1.2,0.7c0.3,0.4,0.5,0.8,0.5,1.4c0,0.6-0.2,1-0.5,1.4
			c-0.3,0.4-0.7,0.6-1.2,0.7c-0.4,0.1-1.1,0.1-2.2,0.1h-0.6v3.9h-0.8V124.1z M261.6,125v2.9l1.4,0c0.6,0,1-0.1,1.3-0.2
			c0.3-0.1,0.5-0.3,0.6-0.5c0.2-0.2,0.2-0.5,0.2-0.8c0-0.3-0.1-0.5-0.2-0.8c-0.2-0.2-0.4-0.4-0.6-0.5s-0.7-0.2-1.2-0.2H261.6z"/>
		<path class="st0" d="M270.6,126.2c1,0,1.8,0.3,2.4,1c0.6,0.6,0.9,1.4,0.9,2.3c0,0.9-0.3,1.6-0.9,2.3s-1.4,1-2.4,1
			c-1,0-1.8-0.3-2.4-1c-0.6-0.7-0.9-1.4-0.9-2.3c0-0.9,0.3-1.6,0.9-2.3C268.8,126.5,269.6,126.2,270.6,126.2z M270.6,127
			c-0.7,0-1.2,0.2-1.7,0.7c-0.5,0.5-0.7,1.1-0.7,1.8c0,0.5,0.1,0.9,0.3,1.3c0.2,0.4,0.5,0.7,0.9,0.9c0.4,0.2,0.8,0.3,1.2,0.3
			s0.9-0.1,1.2-0.3c0.4-0.2,0.7-0.5,0.9-0.9s0.3-0.8,0.3-1.3c0-0.7-0.2-1.3-0.7-1.8C271.8,127.2,271.2,127,270.6,127z"/>
		<path class="st0" d="M274.5,126.3h0.8l1.9,4.6l2-4.6h0.1l2,4.6l2-4.6h0.8l-2.7,6.3h-0.1l-2-4.5l-2,4.5h-0.2L274.5,126.3z"/>
		<path class="st0" d="M291.4,123.9v8.7h-0.8v-1.1c-0.3,0.4-0.7,0.7-1.1,0.9c-0.4,0.2-0.9,0.3-1.4,0.3c-0.9,0-1.6-0.3-2.3-1
			c-0.6-0.6-0.9-1.4-0.9-2.4c0-0.9,0.3-1.7,1-2.3s1.4-1,2.3-1c0.5,0,1,0.1,1.4,0.3c0.4,0.2,0.8,0.5,1.1,1v-3.6H291.4z M288.2,127
			c-0.4,0-0.9,0.1-1.2,0.3c-0.4,0.2-0.7,0.5-0.9,0.9c-0.2,0.4-0.3,0.8-0.3,1.3c0,0.4,0.1,0.9,0.3,1.3c0.2,0.4,0.5,0.7,0.9,0.9
			c0.4,0.2,0.8,0.3,1.2,0.3c0.4,0,0.9-0.1,1.3-0.3c0.4-0.2,0.7-0.5,0.9-0.9c0.2-0.4,0.3-0.8,0.3-1.3c0-0.7-0.2-1.3-0.7-1.8
			C289.5,127.2,288.9,127,288.2,127z"/>
		<path class="st0" d="M298.5,130.5l0.7,0.4c-0.2,0.4-0.5,0.8-0.8,1.1c-0.3,0.3-0.6,0.5-1,0.6s-0.8,0.2-1.2,0.2c-1,0-1.8-0.3-2.4-1
			s-0.9-1.4-0.9-2.3c0-0.8,0.2-1.5,0.7-2.1c0.6-0.8,1.4-1.2,2.5-1.2c1.1,0,1.9,0.4,2.6,1.2c0.5,0.6,0.7,1.3,0.7,2.1h-5.7
			c0,0.7,0.2,1.3,0.7,1.8c0.5,0.5,1,0.7,1.7,0.7c0.3,0,0.6-0.1,0.9-0.2c0.3-0.1,0.6-0.3,0.8-0.4
			C298.1,131.2,298.3,130.9,298.5,130.5z M298.5,128.8c-0.1-0.4-0.3-0.8-0.5-1c-0.2-0.3-0.5-0.5-0.8-0.6c-0.3-0.2-0.7-0.2-1.1-0.2
			c-0.6,0-1.1,0.2-1.6,0.6c-0.3,0.3-0.6,0.7-0.7,1.3H298.5z"/>
		<path class="st0" d="M300.6,126.3h0.8v0.9c0.2-0.4,0.5-0.6,0.8-0.8c0.3-0.2,0.6-0.3,0.9-0.3c0.2,0,0.5,0.1,0.7,0.2l-0.4,0.7
			c-0.2-0.1-0.3-0.1-0.4-0.1c-0.3,0-0.5,0.1-0.8,0.3c-0.3,0.2-0.4,0.6-0.6,1c-0.1,0.4-0.2,1.1-0.2,2.2v2.1h-0.8V126.3z"/>
		<path class="st0" d="M305.4,126.2c0.2,0,0.4,0.1,0.5,0.2s0.2,0.3,0.2,0.5c0,0.2-0.1,0.4-0.2,0.5c-0.1,0.1-0.3,0.2-0.5,0.2
			s-0.4-0.1-0.5-0.2c-0.1-0.1-0.2-0.3-0.2-0.5c0-0.2,0.1-0.4,0.2-0.5S305.2,126.2,305.4,126.2z M305.4,131.3c0.2,0,0.4,0.1,0.5,0.2
			c0.1,0.1,0.2,0.3,0.2,0.5c0,0.2-0.1,0.4-0.2,0.5s-0.3,0.2-0.5,0.2s-0.4-0.1-0.5-0.2s-0.2-0.3-0.2-0.5c0-0.2,0.1-0.4,0.2-0.5
			C305,131.4,305.2,131.3,305.4,131.3z"/>
		<path class="st0" d="M312.4,132.8l-0.7-0.5l2.3-3.5c-0.3,0.1-0.6,0.2-0.9,0.2c-0.7,0-1.2-0.2-1.7-0.7c-0.5-0.5-0.7-1.1-0.7-1.8
			c0-0.5,0.1-0.9,0.3-1.3c0.2-0.4,0.5-0.7,1-0.9c0.4-0.2,0.9-0.4,1.3-0.4c0.5,0,0.9,0.1,1.3,0.3c0.4,0.2,0.7,0.5,0.9,1
			c0.2,0.4,0.3,0.8,0.3,1.3c0,0.4-0.1,0.7-0.2,1.1c-0.1,0.4-0.4,0.8-0.8,1.4L312.4,132.8z M313.3,128.3c0.5,0,0.9-0.2,1.3-0.5
			c0.3-0.3,0.5-0.8,0.5-1.3c0-0.5-0.2-0.9-0.5-1.3c-0.3-0.3-0.8-0.5-1.3-0.5c-0.5,0-0.9,0.2-1.3,0.5c-0.3,0.3-0.5,0.8-0.5,1.3
			c0,0.5,0.2,0.9,0.5,1.3C312.4,128.1,312.8,128.3,313.3,128.3z"/>
		<path class="st0" d="M321.5,123.9l-3.5,9.9h-0.9l3.5-9.9H321.5z"/>
		<path class="st0" d="M324,124.1h1.7v8.5h-0.8V125h-1.3L324,124.1z"/>
		<path class="st0" d="M328.8,128.4c0-1.1,0.1-2,0.4-2.6c0.2-0.6,0.6-1.1,1-1.4s0.9-0.5,1.5-0.5c0.6,0,1,0.2,1.5,0.5
			s0.8,0.8,1.1,1.4s0.4,1.5,0.4,2.6c0,1.1-0.1,1.9-0.4,2.5c-0.3,0.6-0.6,1.1-1.1,1.4s-1,0.5-1.5,0.5c-0.5,0-1-0.2-1.5-0.5
			s-0.8-0.8-1-1.4C328.9,130.4,328.8,129.5,328.8,128.4z M329.6,128.4c0,1,0.1,1.7,0.3,2.2c0.2,0.5,0.4,0.9,0.8,1.1
			c0.3,0.3,0.7,0.4,1.1,0.4c0.4,0,0.7-0.1,1.1-0.4c0.3-0.2,0.6-0.6,0.7-1.1c0.2-0.6,0.3-1.3,0.3-2.2c0-0.9-0.1-1.6-0.3-2.1
			c-0.2-0.5-0.5-0.9-0.8-1.2c-0.3-0.3-0.7-0.4-1.1-0.4c-0.4,0-0.7,0.1-1.1,0.4c-0.3,0.3-0.6,0.6-0.8,1.1
			C329.7,126.7,329.6,127.4,329.6,128.4z"/>
	</g>
</g>
</svg>
